<svg width="40" height="59" viewBox="0 0 40 59" fill="none" xmlns="http://www.w3.org/2000/svg">
<path d="M18.476 58.9552C16.5471 58.9552 14.9833 57.3915 14.9833 55.4626C14.9833 53.5836 13.4945 52.0535 11.6258 51.8577C8.70721 51.5518 5.9428 51.0067 3.6185 50.3259C1.49334 49.7035 0.492295 47.4176 1.15394 45.3043C1.94847 42.7666 4.78233 41.5088 7.33518 42.2533C10.2783 43.1116 13.6717 43.7116 17.2776 43.7116C22.2997 43.7116 25.7377 42.1235 25.7377 39.2347C25.7377 36.4878 22.9177 34.7523 16.3945 32.9449C6.96586 30.3454 0.530303 26.7325 0.530303 19.726C0.530303 14.0966 4.81378 9.5455 12.3366 7.52158C14.0939 7.0488 15.426 5.52663 15.426 3.70685C15.426 1.65961 17.0856 0 19.1329 0H20.8208C22.6093 0 24.0592 1.44989 24.0592 3.23841C24.0592 4.98057 25.4393 6.39716 27.1738 6.56025C29.4153 6.77101 31.3288 7.10566 32.9837 7.51362C35.2019 8.06046 36.3112 10.4262 35.629 12.6066C34.8925 14.9602 32.3836 16.1488 29.9995 15.5178C27.8186 14.9405 25.0439 14.4477 21.5897 14.4477C15.8642 14.4477 14.0126 16.4706 14.0126 18.4954C14.0126 20.8775 17.0978 22.3956 24.5895 24.7078C35.072 27.744 39.3054 31.7142 39.3054 38.2214C39.3054 43.9012 34.971 48.8478 26.9759 50.9214C25.0752 51.4144 23.6188 53.0463 23.6188 55.0099C23.6188 57.1888 21.8524 58.9552 19.6734 58.9552H18.476Z" fill="#8464C7" fill-opacity="0.3"/>
</svg>
