<svg width="55" height="59" viewBox="0 0 55 59" fill="none" xmlns="http://www.w3.org/2000/svg">
<path d="M52.0855 38.6824H43.2843C41.3075 38.6824 41.128 39.4815 40.8614 41.1921C40.1413 45.3129 36.1027 47.8336 31.2532 47.8336C25.6855 47.8336 21.2046 43.5654 20.8437 38.6693H33.2887C34.8157 38.6693 35.8929 38.1555 35.8929 36.1798V33.7237C35.8929 31.7535 34.8157 31.2969 33.2887 31.2969H20.755V27.6363H33.2887C34.8157 27.6363 35.8929 27.1244 35.8929 25.1469V22.6906C35.8929 20.7185 34.8157 20.2011 33.2887 20.2011H20.9345C21.5638 15.7378 25.8955 11.035 31.1948 11.035C36.0442 11.035 38.794 12.8966 40.684 15.7285C41.4022 16.7597 41.4928 18.3874 43.379 18.3874H52.0592C54.1249 18.3874 54.8448 17.6693 54.8448 15.6126C53.6768 4.71555 42.5737 0 31.4346 0C20.8418 0 7.75801 6.98406 7.48772 20.1993H2.60424C0.990376 20.1993 0 20.7131 0 22.6887V25.1451C0 27.1189 0.98851 27.6345 2.60424 27.6345H5.71114V31.2933H2.60424C0.990376 31.2933 0 31.807 0 33.7827V36.1819C0 38.1521 0.98851 38.6713 2.60424 38.6713H7.48212V39.0175C7.48212 52.4886 20.5678 58.9552 31.2532 58.9552C42.3921 58.9552 54.7785 52.4389 54.7785 41.3651C54.7785 39.3064 54.0605 38.6824 52.0855 38.6824Z" fill="#8464C7" fill-opacity="0.3"/>
</svg>
