<svg width="24" height="24" viewBox="0 0 24 24" fill="none" xmlns="http://www.w3.org/2000/svg">
<path d="M2 19C1.44772 19 1 19.4477 1 20C1 20.5523 1.44772 21 2 21V19ZM22 21C22.5523 21 23 20.5523 23 20C23 19.4477 22.5523 19 22 19V21ZM20 20.0001L20 21.0001C20.2652 21.0001 20.5196 20.8947 20.7071 20.7072C20.8946 20.5197 21 20.2653 21 20.0001H20ZM14 20H13C13 20.5523 13.4477 21 14 21L14 20ZM10 20V21C10.5523 21 11 20.5523 11 20H10ZM4 20H3C3 20.5523 3.44772 21 4 21V20ZM5.09277 9.04387L4.43427 8.2913L5.09277 9.04387ZM9.89278 4.84387L9.23427 4.09129L9.23427 4.09129L9.89278 4.84387ZM14.1074 4.84387L13.4489 5.59645V5.59645L14.1074 4.84387ZM18.9074 9.04387L18.2489 9.79645L18.9074 9.04387ZM4.06497 10.402L5.03249 10.6548L4.06497 10.402ZM4.34521 9.78425L3.51784 9.2226L3.51784 9.2226L4.34521 9.78425ZM11.4326 3.73975L11.7162 4.69869L11.4326 3.73975ZM12.5674 3.73975L12.2838 4.69869L12.5674 3.73975ZM19.9351 10.402L18.9675 10.6548L19.9351 10.402ZM19.6548 9.78425L20.4821 9.2226V9.2226L19.6548 9.78425ZM2 21H22V19H2V21ZM19 11.4521V20.0001H21V11.4521H19ZM20 19.0001L14 19L14 21L20 21.0001L20 19.0001ZM15 20V16H13V20H15ZM9 16V20H11V16H9ZM10 19H4V21H10V19ZM5 20V11.4521H3V20H5ZM5.75128 9.79645L10.5513 5.59645L9.23427 4.09129L4.43427 8.2913L5.75128 9.79645ZM13.4489 5.59645L18.2489 9.79645L19.5659 8.2913L14.7659 4.09129L13.4489 5.59645ZM5 11.4521C5 10.8654 5.00759 10.7501 5.03249 10.6548L3.09746 10.1492C2.99241 10.5512 3 10.9702 3 11.4521H5ZM4.43427 8.2913C4.07166 8.60858 3.75123 8.87878 3.51784 9.2226L5.17259 10.3459C5.22787 10.2645 5.30962 10.1829 5.75128 9.79645L4.43427 8.2913ZM5.03249 10.6548C5.06132 10.5445 5.10873 10.44 5.17259 10.3459L3.51784 9.2226C3.32588 9.50538 3.18378 9.81881 3.09746 10.1492L5.03249 10.6548ZM12 13C10.3431 13 9 14.3431 9 16H11C11 15.4477 11.4477 15 12 15V13ZM10.5513 5.59645C10.9362 5.25967 11.1828 5.04473 11.3841 4.89422C11.5753 4.75121 11.665 4.71383 11.7162 4.69869L11.149 2.7808C10.7801 2.8899 10.4732 3.07794 10.1862 3.29262C9.9092 3.49979 9.596 3.77479 9.23427 4.09129L10.5513 5.59645ZM14.7659 4.09129C14.4041 3.77474 14.0909 3.49975 13.8138 3.29256C13.5267 3.07788 13.2198 2.88988 12.851 2.7808L12.2838 4.69869C12.335 4.71385 12.4249 4.75127 12.6161 4.89428C12.8174 5.04477 13.0641 5.25972 13.4489 5.59645L14.7659 4.09129ZM11.7162 4.69869C11.9013 4.64395 12.0987 4.64395 12.2838 4.69869L12.851 2.7808C12.2957 2.61659 11.7043 2.61659 11.149 2.7808L11.7162 4.69869ZM15 16C15 14.3431 13.6569 13 12 13V15C12.5523 15 13 15.4477 13 16H15ZM21 11.4521C21 10.9703 21.0076 10.5512 20.9026 10.1492L18.9675 10.6548C18.9924 10.75 19 10.8654 19 11.4521H21ZM18.2489 9.79645C18.6902 10.1826 18.772 10.2644 18.8274 10.3459L20.4821 9.2226C20.2488 8.87888 19.9289 8.6089 19.5659 8.2913L18.2489 9.79645ZM20.9026 10.1492C20.8162 9.81867 20.674 9.50526 20.4821 9.2226L18.8274 10.3459C18.8913 10.4401 18.9387 10.5446 18.9675 10.6548L20.9026 10.1492Z" fill="black"/>
</svg>
