<svg width="24" height="24" viewBox="0 0 24 24" fill="none" xmlns="http://www.w3.org/2000/svg">
<path d="M16 7C15.4477 7 15 7.44772 15 8C15 8.55228 15.4477 9 16 9V7ZM21 20L20.361 20.7692C20.6593 21.017 21.0739 21.07 21.4249 20.9053C21.7759 20.7405 22 20.3877 22 20H21ZM17.6665 17.2308L17.0275 18L17.0275 18L17.6665 17.2308ZM9 13C9 12.4477 8.55228 12 8 12C7.44772 12 7 12.4477 7 13H9ZM6.3335 13.2308L6.9725 14L6.97251 14L6.3335 13.2308ZM3 16H2C2 16.3878 2.22414 16.7406 2.57515 16.9053C2.92615 17.07 3.34075 17.017 3.639 16.7692L3 16ZM16 9H20V7H16V9ZM20 9H22C22 7.89543 21.1046 7 20 7V9ZM20 9V20H22V9H20ZM21.639 19.2308L18.3055 16.4616L17.0275 18L20.361 20.7692L21.639 19.2308ZM18.3055 16.4616C17.9468 16.1636 17.4951 16 17.0278 16V18L17.0275 18L18.3055 16.4616ZM17.0278 16H9V18H17.0278V16ZM9 16H7C7 17.1046 7.89543 18 9 18V16ZM9 16V13H7V16H9ZM15 5H17C17 3.89543 16.1046 3 15 3V5ZM15 5V12H17V5H15ZM15 12V14C16.1046 14 17 13.1046 17 12H15ZM15 12H6.97217V14H15V12ZM6.97217 12C6.50497 12 6.05328 12.1635 5.69448 12.4616L6.97251 14L6.97217 14V12ZM5.6945 12.4616L2.361 15.2308L3.639 16.7692L6.9725 14L5.6945 12.4616ZM4 16V5H2V16H4ZM4 5V3C2.89543 3 2 3.89543 2 5H4ZM4 5H15V3H4V5Z" fill="black"/>
</svg>
