<svg width="24" height="24" viewBox="0 0 24 24" fill="none" xmlns="http://www.w3.org/2000/svg">
<path d="M15 21C15.5523 21 16 20.5523 16 20C16 19.4477 15.5523 19 15 19V21ZM9 19C8.44772 19 8 19.4477 8 20C8 20.5523 8.44772 21 9 21V19ZM4.21799 6.09204L5.10899 6.54603L4.21799 6.09204ZM5.0918 5.21799L5.54579 6.10899L5.0918 5.21799ZM5.0918 16.782L5.54579 15.891H5.54579L5.0918 16.782ZM4.21799 15.908L3.32698 16.362H3.32698L4.21799 15.908ZM19.7822 15.908L18.8912 15.454L19.7822 15.908ZM18.9078 16.782L18.4538 15.891L18.9078 16.782ZM19.7822 6.09204L18.8912 6.54603V6.54603L19.7822 6.09204ZM18.9078 5.21799L19.3618 4.32698V4.32698L18.9078 5.21799ZM15 19H9V21H15V19ZM19 8.20001V13.8H21V8.20001H19ZM16.8002 16H7.2002V18H16.8002V16ZM5 13.8V8.20001H3V13.8H5ZM7.2002 6H16.8002V4H7.2002V6ZM5 8.20001C5 7.62346 5.00078 7.25119 5.02393 6.96785C5.04612 6.69619 5.0838 6.59548 5.10899 6.54603L3.32698 5.63805C3.13419 6.01643 3.06287 6.40964 3.03057 6.80499C2.99922 7.18866 3 7.65646 3 8.20001H5ZM7.2002 4C6.65663 4 6.18874 3.99922 5.80498 4.03057C5.40962 4.06286 5.01624 4.13416 4.63781 4.32698L5.54579 6.10899C5.59517 6.08383 5.69595 6.04613 5.9678 6.02393C6.25126 6.00078 6.62365 6 7.2002 6V4ZM5.10899 6.54603C5.205 6.35761 5.35788 6.20474 5.54579 6.10899L4.63781 4.32698C4.07306 4.61473 3.61447 5.07382 3.32698 5.63805L5.10899 6.54603ZM7.2002 16C6.62367 16 6.25127 15.9992 5.96782 15.9761C5.69598 15.9538 5.59519 15.9161 5.54579 15.891L4.63781 17.673C5.01623 17.8658 5.40959 17.9371 5.80496 17.9694C6.18873 18.0008 6.65662 18 7.2002 18V16ZM3 13.8C3 14.3436 2.99922 14.8114 3.03057 15.195C3.06287 15.5904 3.13419 15.9836 3.32698 16.362L5.10899 15.454C5.0838 15.4045 5.04612 15.3038 5.02393 15.0322C5.00078 14.7488 5 14.3766 5 13.8H3ZM5.54579 15.891C5.35784 15.7952 5.20498 15.6424 5.10899 15.454L3.32698 16.362C3.61449 16.9262 4.0731 17.3853 4.63781 17.673L5.54579 15.891ZM19 13.8C19 14.3767 18.9993 14.7489 18.9762 15.0323C18.954 15.304 18.9164 15.4046 18.8912 15.454L20.6732 16.362C20.8661 15.9835 20.9373 15.5902 20.9695 15.1949C21.0008 14.8113 21 14.3435 21 13.8H19ZM16.8002 18C17.3438 18 17.8115 18.0008 18.1951 17.9694C18.5904 17.9371 18.9835 17.8657 19.3618 17.673L18.4538 15.891C18.4043 15.9162 18.3036 15.9539 18.0321 15.9761C17.7489 15.9992 17.3767 16 16.8002 16V18ZM18.8912 15.454C18.7956 15.6417 18.6424 15.7949 18.4538 15.891L19.3618 17.673C19.9258 17.3856 20.3854 16.9269 20.6732 16.362L18.8912 15.454ZM21 8.20001C21 7.65656 21.0008 7.18875 20.9696 6.80515C20.9373 6.40986 20.8661 6.01654 20.6732 5.63805L18.8912 6.54603C18.9164 6.59536 18.954 6.69598 18.9762 6.96769C18.9993 7.2511 19 7.62336 19 8.20001H21ZM16.8002 6C17.3768 6 17.7489 6.00078 18.0321 6.02393C18.3036 6.04611 18.4043 6.08377 18.4538 6.10899L19.3618 4.32698C18.9835 4.13421 18.5904 4.06288 18.1951 4.03057C17.8115 3.99922 17.3437 4 16.8002 4V6ZM20.6732 5.63805C20.3854 5.07315 19.9259 4.61439 19.3618 4.32698L18.4538 6.10899C18.6424 6.20508 18.7956 6.35828 18.8912 6.54603L20.6732 5.63805Z" fill="black"/>
</svg>
