<svg width="24" height="24" viewBox="0 0 24 24" fill="none" xmlns="http://www.w3.org/2000/svg">
<path d="M2.61557 9.47314L2.49783 8.48009L2.49782 8.48009L2.61557 9.47314ZM2.33496 10.3368L3.01392 9.60257L3.01391 9.60257L2.33496 10.3368ZM6.77367 14.4416L6.09471 15.1758L6.09472 15.1758L6.77367 14.4416ZM6.92437 14.9061L7.9052 15.1009L7.9052 15.1009L6.92437 14.9061ZM5.74609 20.836L4.76527 20.6411L4.76527 20.6411L5.74609 20.836ZM6.48109 21.3697L5.99266 20.4971L5.99264 20.4971L6.48109 21.3697ZM11.757 18.4166L12.2454 19.2892L12.2454 19.2892L11.757 18.4166ZM12.2453 18.4167L11.7568 19.2893H11.7568L12.2453 18.4167ZM17.5206 21.3696L18.0091 20.497H18.0091L17.5206 21.3696ZM18.2551 20.8359L17.2743 21.0308L17.2743 21.0308L18.2551 20.8359ZM17.0771 14.9061L18.058 14.7113L18.058 14.7112L17.0771 14.9061ZM17.2279 14.4415L17.9069 15.1757L17.9069 15.1757L17.2279 14.4415ZM21.6662 10.3368L20.9873 9.6026L20.9873 9.60263L21.6662 10.3368ZM21.3857 9.47314L21.5035 8.48009L21.5035 8.48009L21.3857 9.47314ZM15.3818 8.76135L15.2641 9.75439L15.2641 9.75439L15.3818 8.76135ZM14.9873 8.47424L14.0792 8.89308L14.0792 8.89308L14.9873 8.47424ZM12.4551 2.98425L13.3631 2.56541L13.3631 2.5654L12.4551 2.98425ZM11.5469 2.9843L10.6388 2.56545V2.56545L11.5469 2.9843ZM9.01465 8.47416L9.92271 8.89301L9.01465 8.47416ZM8.61914 8.76134L8.73688 9.75438L8.73688 9.75438L8.61914 8.76134ZM2.49782 8.48009C1.22673 8.6308 0.716261 10.2019 1.65601 11.0709L3.01391 9.60257C3.32716 9.89225 3.15701 10.4159 2.73331 10.4662L2.49782 8.48009ZM1.65601 11.0709L6.09471 15.1758L7.45262 13.7074L3.01392 9.60257L1.65601 11.0709ZM6.09472 15.1758C5.96637 15.0571 5.90984 14.8808 5.94355 14.7112L7.9052 15.1009C8.00669 14.5902 7.8363 14.0622 7.45262 13.7074L6.09472 15.1758ZM5.94355 14.7112L4.76527 20.6411L6.72692 21.0309L7.9052 15.1009L5.94355 14.7112ZM4.76527 20.6411C4.5156 21.8976 5.85354 22.867 6.96953 22.2423L5.99264 20.4971C6.36402 20.2892 6.81028 20.6113 6.72692 21.0309L4.76527 20.6411ZM6.96951 22.2423L12.2454 19.2892L11.2685 17.544L5.99266 20.4971L6.96951 22.2423ZM12.2454 19.2892C12.0933 19.3744 11.9082 19.374 11.7568 19.2893L12.7337 17.5441C12.2789 17.2895 11.7241 17.289 11.2685 17.544L12.2454 19.2892ZM11.7568 19.2893L17.0322 22.2422L18.0091 20.497L12.7337 17.5441L11.7568 19.2893ZM17.0322 22.2422C18.1493 22.8675 19.4854 21.8963 19.236 20.641L17.2743 21.0308C17.1912 20.6125 17.6366 20.2885 18.0091 20.497L17.0322 22.2422ZM19.236 20.6411L18.058 14.7113L16.0963 15.101L17.2743 21.0308L19.236 20.6411ZM18.058 14.7112C18.0917 14.881 18.0351 15.0571 17.9069 15.1757L16.549 13.7073C16.1654 14.0621 15.9948 14.5901 16.0963 15.101L18.058 14.7112ZM17.9069 15.1757L22.3452 11.0709L20.9873 9.60263L16.5489 13.7074L17.9069 15.1757ZM22.3452 11.071C23.2846 10.2022 22.775 8.63086 21.5035 8.48009L21.268 10.4662C20.8438 10.4159 20.6744 9.89197 20.9873 9.6026L22.3452 11.071ZM21.5035 8.48009L15.4996 7.7683L15.2641 9.75439L21.268 10.4662L21.5035 8.48009ZM15.4996 7.7683C15.674 7.78898 15.8232 7.89904 15.8954 8.05539L14.0792 8.89308C14.297 9.36524 14.7444 9.69277 15.2641 9.75439L15.4996 7.7683ZM15.8954 8.0554L13.3631 2.56541L11.547 3.40308L14.0792 8.89308L15.8954 8.0554ZM13.3631 2.5654C12.8269 1.4029 11.1748 1.40334 10.6388 2.56545L12.4549 3.40314C12.2763 3.79038 11.7258 3.79073 11.547 3.40309L13.3631 2.5654ZM10.6388 2.56545L8.10659 8.05531L9.92271 8.89301L12.4549 3.40314L10.6388 2.56545ZM8.10659 8.05531C8.1797 7.89682 8.32936 7.78869 8.5014 7.76829L8.73688 9.75438C9.25428 9.69303 9.70393 9.3673 9.92271 8.89301L8.10659 8.05531ZM8.5014 7.76829L2.49783 8.48009L2.7333 10.4662L8.73688 9.75438L8.5014 7.76829Z" fill="black"/>
</svg>
