<svg width="32" height="31" viewBox="0 0 32 31" fill="none" xmlns="http://www.w3.org/2000/svg">
<g clip-path="url(#clip0_119_191)">
<path d="M16 30.7463C24.8366 30.7463 32 23.8635 32 15.3732C32 6.8828 24.8366 0 16 0C7.16344 0 0 6.8828 0 15.3732C0 23.8635 7.16344 30.7463 16 30.7463Z" fill="url(#paint0_linear_119_191)"/>
<path fill-rule="evenodd" clip-rule="evenodd" d="M7.24251 15.2111C11.9068 13.2586 15.0171 11.9713 16.5734 11.3494C21.0167 9.57364 21.94 9.26518 22.5418 9.25499C22.6742 9.25275 22.9701 9.28427 23.1618 9.43373C23.3237 9.55992 23.3682 9.7304 23.3895 9.85005C23.4108 9.9697 23.4374 10.2423 23.4163 10.4552C23.1755 12.8861 22.1336 18.7852 21.6036 21.5078C21.3793 22.6598 20.9376 23.0461 20.5101 23.0839C19.581 23.166 18.8754 22.4939 17.9755 21.9271C16.5673 21.0402 15.7717 20.488 14.4048 19.6225C12.8251 18.6223 13.8492 18.0726 14.7494 17.1742C14.985 16.939 19.0789 13.3613 19.1581 13.0367C19.168 12.9961 19.1772 12.8448 19.0837 12.7649C18.9901 12.685 18.852 12.7123 18.7524 12.7341C18.6112 12.7649 16.3615 14.1935 12.0035 17.0201C11.365 17.4414 10.7866 17.6466 10.2684 17.6359C9.69709 17.624 8.59817 17.3255 7.78124 17.0704C6.77924 16.7574 5.98287 16.592 6.05221 16.0605C6.08833 15.7836 6.4851 15.5005 7.24251 15.2111Z" fill="white"/>
</g>
<defs>
<linearGradient id="paint0_linear_119_191" x1="16" y1="0" x2="16" y2="30.5183" gradientUnits="userSpaceOnUse">
<stop stop-color="#2AABEE"/>
<stop offset="1" stop-color="#229ED9"/>
</linearGradient>
<clipPath id="clip0_119_191">
<rect width="32" height="30.7463" fill="white"/>
</clipPath>
</defs>
</svg>
