<svg width="35" height="35" viewBox="0 0 35 35" fill="none" xmlns="http://www.w3.org/2000/svg">
<path d="M19.6654 10.9594C19.2749 10.5689 18.6417 10.5689 18.2512 10.9594C17.8607 11.3499 17.8607 11.9831 18.2512 12.3736L19.6654 10.9594ZM24.7916 17.4998L25.4988 18.2069C25.8893 17.8164 25.8893 17.1833 25.4988 16.7927L24.7916 17.4998ZM18.2512 22.6261C17.8607 23.0166 17.8607 23.6498 18.2512 24.0403C18.6417 24.4308 19.2749 24.4308 19.6654 24.0403L18.2512 22.6261ZM10.9154 10.9594C10.5249 10.5689 9.89173 10.5689 9.50121 10.9594C9.11068 11.3499 9.11068 11.9831 9.50121 12.3736L10.9154 10.9594ZM16.0416 17.4998L16.7488 18.2069C17.1393 17.8164 17.1393 17.1833 16.7488 16.7927L16.0416 17.4998ZM9.50121 22.6261C9.11068 23.0166 9.11068 23.6498 9.50121 24.0403C9.89173 24.4308 10.5249 24.4308 10.9154 24.0403L9.50121 22.6261ZM18.2512 12.3736L24.0845 18.2069L25.4988 16.7927L19.6654 10.9594L18.2512 12.3736ZM24.0845 16.7927L18.2512 22.6261L19.6654 24.0403L25.4988 18.2069L24.0845 16.7927ZM9.50121 12.3736L15.3345 18.2069L16.7488 16.7927L10.9154 10.9594L9.50121 12.3736ZM15.3345 16.7927L9.50121 22.6261L10.9154 24.0403L16.7488 18.2069L15.3345 16.7927Z" fill="white"/>
</svg>
