<svg width="35" height="35" viewBox="0 0 35 35" fill="none" xmlns="http://www.w3.org/2000/svg">
<path d="M24.0846 24.0403C24.4751 24.4308 25.1083 24.4308 25.4988 24.0403C25.8893 23.6498 25.8893 23.0166 25.4988 22.6261L24.0846 24.0403ZM18.9583 17.4998L18.2512 16.7927C17.8607 17.1833 17.8607 17.8164 18.2512 18.2069L18.9583 17.4998ZM25.4988 12.3736C25.8893 11.9831 25.8893 11.3499 25.4988 10.9594C25.1083 10.5689 24.4751 10.5689 24.0846 10.9594L25.4988 12.3736ZM15.3346 24.0403C15.7251 24.4308 16.3583 24.4308 16.7488 24.0403C17.1393 23.6498 17.1393 23.0166 16.7488 22.6261L15.3346 24.0403ZM10.2083 17.4998L9.50124 16.7927C9.11071 17.1833 9.11071 17.8164 9.50124 18.2069L10.2083 17.4998ZM16.7488 12.3736C17.1393 11.9831 17.1393 11.3499 16.7488 10.9594C16.3583 10.5689 15.7251 10.5689 15.3346 10.9594L16.7488 12.3736ZM25.4988 22.6261L19.6654 16.7927L18.2512 18.2069L24.0846 24.0403L25.4988 22.6261ZM19.6654 18.2069L25.4988 12.3736L24.0846 10.9594L18.2512 16.7927L19.6654 18.2069ZM16.7488 22.6261L10.9155 16.7927L9.50124 18.2069L15.3346 24.0403L16.7488 22.6261ZM10.9155 18.2069L16.7488 12.3736L15.3346 10.9594L9.50124 16.7927L10.9155 18.2069Z" fill="white"/>
</svg>
