<svg width="55" height="55" viewBox="0 0 55 55" fill="none" xmlns="http://www.w3.org/2000/svg">
<path d="M7.37455 13.9611L8.26556 14.4151L7.37455 13.9611ZM9.37703 11.958L9.83103 12.8491L9.37703 11.958ZM9.37703 43.0422L9.83103 42.1512L9.37703 43.0422ZM7.37455 41.0394L6.48355 41.4934L7.37455 41.0394ZM47.6259 41.0394L46.7349 40.5854L47.6259 41.0394ZM45.622 43.0422L45.168 42.1512L45.622 43.0422ZM47.6259 13.9611L46.7349 14.4151V14.4151L47.6259 13.9611ZM45.622 11.958L46.076 11.067L45.622 11.958ZM9.75584 12.9422C9.30959 12.6168 8.68405 12.7147 8.35866 13.161C8.03327 13.6072 8.13124 14.2328 8.57749 14.5582L9.75584 12.9422ZM28.0238 27.5002L27.4346 28.3082C27.7939 28.5701 28.283 28.5634 28.6349 28.2917L28.0238 27.5002ZM46.4443 14.5417C46.8815 14.2042 46.9623 13.5762 46.6247 13.139C46.2872 12.7019 45.6592 12.6211 45.2221 12.9586L46.4443 14.5417ZM47.125 18.7917V36.2084H49.125V18.7917H47.125ZM40.7921 42.5418H14.2088V44.5418H40.7921V42.5418ZM7.875 36.2084V18.7917H5.875V36.2084H7.875ZM14.2088 12.4585H40.7921V10.4585H14.2088V12.4585ZM7.875 18.7917C7.875 17.4918 7.87578 16.577 7.93412 15.8629C7.99151 15.1605 8.09958 14.7408 8.26556 14.4151L6.48355 13.5071C6.14997 14.1618 6.00826 14.8739 5.94077 15.7C5.87422 16.5144 5.875 17.5248 5.875 18.7917H7.875ZM14.2088 10.4585C12.9418 10.4585 11.9312 10.4577 11.1166 10.5243C10.2903 10.5917 9.57779 10.7334 8.92304 11.067L9.83103 12.8491C10.1567 12.6831 10.5766 12.575 11.2794 12.5176C11.9938 12.4593 12.9088 12.4585 14.2088 12.4585V10.4585ZM8.26556 14.4151C8.60924 13.7406 9.15704 13.1925 9.83103 12.8491L8.92304 11.067C7.87221 11.6025 7.01871 12.4568 6.48355 13.5071L8.26556 14.4151ZM14.2088 42.5418C12.9089 42.5418 11.9938 42.541 11.2794 42.4827C10.5767 42.4253 10.1567 42.3172 9.83103 42.1512L8.92304 43.9332C9.57777 44.2668 10.2903 44.4085 11.1165 44.476C11.9312 44.5426 12.9418 44.5418 14.2088 44.5418V42.5418ZM5.875 36.2084C5.875 37.4753 5.87422 38.4857 5.94076 39.3002C6.00826 40.1264 6.14996 40.8387 6.48355 41.4934L8.26556 40.5854C8.09959 40.2597 7.99152 39.8399 7.93412 39.1374C7.87578 38.4232 7.875 37.5083 7.875 36.2084H5.875ZM9.83103 42.1512C9.15693 41.8077 8.60918 41.2598 8.26556 40.5854L6.48355 41.4934C7.01876 42.5438 7.87232 43.3978 8.92304 43.9332L9.83103 42.1512ZM47.125 36.2084C47.125 37.5084 47.1243 38.4233 47.0661 39.1376C47.0088 39.8401 46.9008 40.2598 46.7349 40.5854L48.5169 41.4934C48.8506 40.8386 48.9921 40.1262 49.0595 39.3001C49.1259 38.4857 49.125 37.4752 49.125 36.2084H47.125ZM40.7921 44.5418C42.0591 44.5418 43.0692 44.5426 43.8835 44.476C44.7095 44.4085 45.4214 44.2668 46.076 43.9332L45.168 42.1512C44.8422 42.3172 44.4226 42.4253 43.7205 42.4827C43.0066 42.541 42.0921 42.5418 40.7921 42.5418V44.5418ZM46.7349 40.5854C46.3916 41.2591 45.8428 41.8074 45.168 42.1512L46.076 43.9332C47.1261 43.3982 47.9814 42.5445 48.5169 41.4934L46.7349 40.5854ZM49.125 18.7917C49.125 17.5249 49.1259 16.5145 49.0595 15.7002C48.9921 14.8742 48.8506 14.1619 48.5169 13.5071L46.7349 14.4151C46.9009 14.7407 47.0088 15.1603 47.0661 15.8628C47.1243 16.5769 47.125 17.4917 47.125 18.7917H49.125ZM40.7921 12.4585C42.0921 12.4585 43.0067 12.4593 43.7205 12.5176C44.4227 12.575 44.8422 12.6831 45.168 12.8491L46.076 11.067C45.4214 10.7335 44.7094 10.5918 43.8834 10.5243C43.0692 10.4577 42.0591 10.4585 40.7921 10.4585V12.4585ZM48.5169 13.5071C47.9814 12.4561 47.1262 11.6021 46.076 11.067L45.168 12.8491C45.8427 13.1928 46.3916 13.7412 46.7349 14.4151L48.5169 13.5071ZM8.57749 14.5582L27.4346 28.3082L28.613 26.6922L9.75584 12.9422L8.57749 14.5582ZM28.6349 28.2917L46.4443 14.5417L45.2221 12.9586L27.4127 26.7086L28.6349 28.2917Z" fill="#D67EB6"/>
</svg>
