<svg width="50" height="50" viewBox="0 0 50 50" fill="none" xmlns="http://www.w3.org/2000/svg">
<path d="M19.7978 8.86921L20.7263 8.49782L20.7263 8.49781L19.7978 8.86921ZM21.9942 14.3601L21.0657 14.7315L21.0657 14.7315L21.9942 14.3601ZM21.3267 18.5749L20.5585 17.9348L20.5585 17.9348L21.3267 18.5749ZM20.1447 19.9935L20.9129 20.6337L20.9129 20.6337L20.1447 19.9935ZM20.3987 25.6073L19.6916 26.3144L19.6916 26.3144L20.3987 25.6073ZM24.3928 29.6011L25.0999 28.894L25.0999 28.894L24.3928 29.6011ZM30.0064 29.8557L29.3663 29.0874L29.3662 29.0875L30.0064 29.8557ZM31.4254 28.6736L32.0655 29.4419L32.0656 29.4418L31.4254 28.6736ZM35.6399 28.006L36.0113 27.0775L36.0112 27.0775L35.6399 28.006ZM41.1304 30.2024L40.759 31.1308L40.759 31.1308L41.1304 30.2024ZM43.7498 34.0709H42.7498V34.0709L43.7498 34.0709ZM43.75 39.8028H44.75V39.8027L43.75 39.8028ZM15.9292 7.25C17.224 7.25 18.3884 8.03834 18.8693 9.2406L20.7263 8.49781C19.9417 6.53625 18.0418 5.25 15.9292 5.25V7.25ZM18.8693 9.24059L21.0657 14.7315L22.9226 13.9887L20.7263 8.49782L18.8693 9.24059ZM21.0657 14.7315C21.4977 15.8116 21.303 17.0413 20.5585 17.9348L22.0949 19.2151C23.3099 17.7571 23.6274 15.7506 22.9226 13.9887L21.0657 14.7315ZM20.5585 17.9348L19.3764 19.3534L20.9129 20.6337L22.0949 19.2151L20.5585 17.9348ZM19.3764 19.3533C17.6659 21.406 17.8018 24.4247 19.6916 26.3144L21.1058 24.9002C19.9479 23.7423 19.8642 21.8921 20.9129 20.6337L19.3764 19.3533ZM19.6916 26.3144L23.6857 30.3083L25.0999 28.894L21.1058 24.9002L19.6916 26.3144ZM23.6857 30.3082C25.5753 32.1978 28.5938 32.3346 30.6466 30.6239L29.3662 29.0875C28.108 30.136 26.258 30.0521 25.0999 28.894L23.6857 30.3082ZM30.6465 30.624L32.0655 29.4419L30.7853 27.9052L29.3663 29.0874L30.6465 30.624ZM32.0656 29.4418C32.9591 28.6972 34.1885 28.5025 35.2685 28.9345L36.0112 27.0775C34.2493 26.3727 32.2431 26.6904 30.7852 27.9053L32.0656 29.4418ZM35.2684 28.9345L40.759 31.1308L41.5018 29.2739L36.0113 27.0775L35.2684 28.9345ZM40.759 31.1308C41.9614 31.6118 42.7498 32.7761 42.7498 34.0709H44.7498C44.7498 31.9581 43.4633 30.0585 41.5018 29.2739L40.759 31.1308ZM42.7498 34.0709L42.75 39.8028L44.75 39.8027L44.7498 34.0708L42.7498 34.0709ZM42.75 39.8028C42.75 41.4306 41.4308 42.7499 39.8031 42.7499V44.7499C42.5355 44.7499 44.75 42.535 44.75 39.8028H42.75ZM39.8031 42.7499C21.8247 42.7499 7.25 28.1757 7.25 10.1974H5.25C5.25 29.2804 20.7202 44.7499 39.8031 44.7499V42.7499ZM7.25 10.1974C7.25 8.56964 8.56961 7.25 10.1974 7.25V5.25C7.46499 5.25 5.25 7.46512 5.25 10.1974H7.25ZM10.1974 7.25H15.9292V5.25H10.1974V7.25Z" fill="#D67EB6"/>
</svg>
