<svg width="50" height="50" viewBox="0 0 50 50" fill="none" xmlns="http://www.w3.org/2000/svg">
<g clip-path="url(#clip0_146_772)">
<path d="M7.27536 0.175774C6.30857 0.507805 5.57615 1.31835 5.37107 2.27538C5.29294 2.63671 5.27341 5.32226 5.29294 11.3281C5.32224 19.834 5.32224 19.873 5.52732 20.3223C5.80075 20.9082 6.43552 21.543 7.02146 21.8066C7.39255 21.9824 7.69529 22.0215 8.86716 22.0508L10.2539 22.0898L10.5957 21.748C11.0351 21.3086 11.0547 20.9277 10.6543 20.4883L10.3711 20.166L9.09177 20.1172C7.8613 20.0683 7.81247 20.0586 7.5488 19.7949L7.27536 19.5312V11.0351V2.53905L7.5488 2.27538L7.81247 2.00195H27.6367H47.4609L47.7246 2.27538L47.998 2.53905V11.0351V19.5312L47.7246 19.7949L47.4609 20.0683L43.7695 20.1269C41.748 20.1562 40.0683 20.1855 40.0488 20.1953C40.0293 20.2051 39.248 20.9668 38.3105 21.8945L36.6113 23.5742L34.9804 21.9531C34.082 21.0644 33.2519 20.2832 33.1347 20.2246C32.9883 20.1562 31.6797 20.1172 29.0136 20.1172H25.1074L24.9218 19.6973C24.4824 18.7207 23.4863 17.7051 22.4609 17.1875C21.8847 16.8945 20.0976 16.3086 19.7949 16.3086C19.4726 16.3086 19.0625 16.6211 18.9062 16.9824C18.8183 17.1777 18.2519 18.7207 17.6465 20.4101C17.0312 22.0996 16.416 23.7109 16.2793 23.9746C15.8886 24.7656 15.1562 25.6543 14.4629 26.2207C13.8086 26.7383 11.4453 28.125 11.2011 28.125C11.1328 28.125 10.9668 28.0176 10.8496 27.8906C10.7226 27.7637 10.4004 27.5488 10.1269 27.4219C9.61911 27.1973 9.58982 27.1973 5.90818 27.1973C2.207 27.1973 2.19724 27.1973 1.67966 27.4316C0.996067 27.7344 0.34177 28.4766 0.146457 29.1406C0.0195043 29.5898 -2.69488e-05 30.8594 0.0195043 38.7793C0.0488012 47.8418 0.0488012 47.9004 0.253879 48.3496C0.517551 48.916 1.08396 49.4824 1.65036 49.7461C2.08005 49.9414 2.2363 49.9512 5.90818 49.9512C9.59958 49.9512 9.72654 49.9414 10.166 49.7461C10.4199 49.6289 10.791 49.3555 10.9863 49.1406L11.3574 48.75L12.1484 49.0527C14.6484 49.9805 14.8144 50 23.291 50C31.2109 50 31.123 50.0098 32.0996 49.3652C33.457 48.4668 34.0527 46.5332 33.4179 45.0976L33.2226 44.6387L33.7597 44.375C34.4531 44.0234 35.1758 43.2226 35.459 42.5C35.7617 41.7187 35.7715 40.5664 35.4687 39.9023C35.3515 39.6387 35.2539 39.4141 35.2539 39.4043C35.2539 39.3848 35.4883 39.248 35.7715 39.082C36.416 38.7207 36.9629 38.125 37.2949 37.4121C37.5097 36.9531 37.5488 36.7285 37.5488 35.9863C37.5488 35.2344 37.5097 35.0293 37.2851 34.5508C36.9433 33.8184 36.2695 33.1055 35.6054 32.7832L35.0781 32.5195L35.2734 32.0117C35.5468 31.2891 35.5371 30.2148 35.2441 29.4433C34.9414 28.6426 34.0625 27.7637 33.2519 27.4316C32.666 27.207 32.6367 27.1973 28.3886 27.168C25.1367 27.1387 24.1113 27.1094 24.1504 27.0215C24.5703 25.9082 25.3906 23.1445 25.4492 22.6758L25.5176 22.0703H28.8867H32.2656L34.1797 23.9648C35.3613 25.1367 36.1914 25.8887 36.3574 25.9277C36.8945 26.0644 37.1289 25.8887 39.0625 23.9746L40.9668 22.0801L44.3847 22.0508C47.6465 22.0215 47.8222 22.0117 48.2519 21.8164C48.8379 21.543 49.4726 20.9082 49.7461 20.3223C49.9511 19.873 49.9511 19.873 49.9511 11.0351C49.9511 2.19726 49.9511 2.19726 49.7461 1.74804C49.4726 1.1621 48.8379 0.527336 48.2519 0.253899L47.8027 0.0488205L27.7832 0.0292892C8.99411 0.009758 7.73435 0.0195236 7.27536 0.175774ZM21.9336 19.1504C22.4902 19.5312 22.9297 20.0586 23.2226 20.6933C23.4277 21.1523 23.4668 21.3867 23.4668 22.1191C23.4668 22.9687 23.4375 23.0957 22.6269 25.4883C22.1582 26.8555 21.7773 28.0957 21.7773 28.2519C21.7773 28.4277 21.8847 28.6328 22.0605 28.8183L22.3437 29.1016H27.1679C30.3613 29.1016 32.1093 29.1406 32.373 29.209C32.8711 29.3457 33.3496 29.8437 33.4863 30.3516C33.7109 31.1816 33.1933 32.0801 32.373 32.3144C32.1289 32.3828 30.8984 32.4219 29.1211 32.4219H26.25L25.9668 32.7051C25.664 33.0176 25.5957 33.3984 25.791 33.8184C26.0156 34.3262 26.0156 34.3262 30.4687 34.375C33.5547 34.4141 34.6777 34.4531 34.834 34.5508C34.9511 34.6191 35.1758 34.834 35.3222 35.0293C35.5566 35.332 35.5957 35.4785 35.5957 35.9766C35.5957 36.6894 35.3515 37.0996 34.7656 37.4023C34.4043 37.5879 34.1797 37.5976 30.4883 37.5976C27.959 37.5976 26.4843 37.6367 26.289 37.7051C25.7715 37.8809 25.5176 38.5644 25.7812 39.0723C26.0254 39.5215 26.2793 39.5508 29.3652 39.5508C31.0547 39.5508 32.4316 39.5898 32.6367 39.6484C33.1347 39.7949 33.6621 40.4199 33.75 40.9766C33.7988 41.3184 33.7597 41.4941 33.584 41.8652C33.3105 42.3926 32.998 42.6562 32.4609 42.7734C32.2558 42.8223 30.7715 42.8711 29.1699 42.8711H26.25L25.9668 43.1543C25.5761 43.5449 25.5761 44.0234 25.9668 44.4531L26.25 44.7754L28.4863 44.8242C30.9082 44.873 30.9668 44.8926 31.4062 45.4687C31.9922 46.2305 31.7285 47.3633 30.8593 47.8223L30.4394 48.0469H23.291C15.2539 48.0469 15.166 48.0371 13.2324 47.3437C12.6465 47.1289 12.0801 46.9336 11.9824 46.9043C11.8261 46.8555 11.8164 46.3867 11.8359 38.4473L11.8652 30.0488L13.2812 29.2676C15.5371 28.0371 16.5918 27.1387 17.5488 25.6543C18.1152 24.7851 18.2519 24.4629 19.4336 21.2207L20.4297 18.4668L20.9863 18.6719C21.289 18.7891 21.709 19.0039 21.9336 19.1504ZM4.90232 35.293L4.93161 41.4941L5.21482 41.7871C5.44919 42.0312 5.58591 42.0898 5.90818 42.0898C6.23044 42.0898 6.36716 42.0312 6.60154 41.7871L6.88474 41.4941L6.91404 35.293L6.94333 29.082L8.16404 29.1211C9.37497 29.1504 9.3945 29.1504 9.62888 29.4238L9.86325 29.6973V38.584V47.4805L9.58005 47.7637L9.29685 48.0469H5.90818H2.5195L2.2363 47.7637L1.9531 47.4805V38.6035C1.9531 30.6152 1.97263 29.707 2.10935 29.5117C2.34372 29.1699 2.5781 29.1113 3.77927 29.1113L4.87302 29.1016L4.90232 35.293Z" fill="#D67EB6"/>
<path d="M5.69332 43.7305C5.0195 43.8281 4.73629 44.8438 5.23434 45.3516C5.59567 45.7129 6.22067 45.7129 6.582 45.3516C6.77731 45.1465 6.8359 44.9902 6.8359 44.6777C6.8359 44.043 6.33786 43.6328 5.69332 43.7305Z" fill="#D67EB6"/>
<path d="M14.8925 5.87872C14.4726 6.10333 14.1894 6.47443 13.7793 7.3045L13.3496 8.17364L12.4804 8.29083C11.0449 8.47638 10.5371 8.79864 10.3515 9.62872C10.205 10.2733 10.4101 10.7225 11.2597 11.5428L12.0214 12.2947L11.875 13.1151C11.6601 14.2381 11.6699 14.6483 11.9433 15.0389C12.2656 15.5174 12.6269 15.742 13.1543 15.7908C13.5742 15.8299 13.7207 15.7811 14.5703 15.3416L15.5273 14.8338L16.455 15.3318C17.4511 15.8494 17.832 15.9178 18.3886 15.6834C18.8086 15.5076 19.2187 15.0193 19.2968 14.5897C19.3359 14.3846 19.2871 13.8084 19.1992 13.242L19.0332 12.2557L19.7754 11.5526C20.1757 11.1619 20.5566 10.7225 20.6152 10.576C20.791 10.117 20.7422 9.51153 20.498 9.12091C20.2148 8.66193 19.707 8.43732 18.5839 8.29083L17.6953 8.17364L17.3242 7.39239C16.8945 6.49396 16.6015 6.1131 16.2011 5.90802C15.8789 5.73224 15.1757 5.72247 14.8925 5.87872ZM15.9277 8.96466C16.3281 9.72638 16.7382 10.0096 17.5781 10.117C17.8711 10.1463 18.1543 10.2049 18.1933 10.2244C18.2422 10.2537 18.0664 10.4979 17.7929 10.7811C17.5293 11.0545 17.2558 11.3768 17.1972 11.494C17.0703 11.7381 17.0605 12.4608 17.1777 13.0565C17.2265 13.2908 17.2363 13.4764 17.1972 13.4764C17.1679 13.4764 16.875 13.3397 16.5625 13.1834C15.791 12.7928 15.2636 12.7928 14.4629 13.1932C14.1308 13.3592 13.8379 13.4861 13.8281 13.4666C13.8086 13.4471 13.8379 13.1346 13.8964 12.783C14.0429 11.8358 13.9453 11.5233 13.3203 10.8494C13.0273 10.5272 12.8222 10.2537 12.8613 10.2244C12.9004 10.1951 13.1836 10.1463 13.4765 10.1072C14.3164 9.99982 14.7656 9.68732 15.1464 8.93536C15.332 8.5838 15.498 8.3006 15.5273 8.3006C15.5566 8.3006 15.7324 8.60333 15.9277 8.96466Z" fill="#D67EB6"/>
<path d="M27.1679 5.95685C26.8261 6.17169 26.4746 6.66974 26.0449 7.57794L25.7617 8.16388L24.7363 8.32013C23.6328 8.48614 23.3496 8.62286 22.9785 9.1795C22.7343 9.53107 22.6757 10.2147 22.8613 10.576C22.9199 10.6932 23.3007 11.1229 23.7011 11.533L24.4336 12.285L24.2675 13.2713C24.1797 13.8182 24.1308 14.4236 24.1601 14.5994C24.2382 15.0193 24.6484 15.5174 25.0683 15.6834C25.625 15.9178 26.0058 15.8494 27.0019 15.3318L27.9297 14.8436L28.9257 15.3416C29.7851 15.7713 29.9804 15.8299 30.3418 15.7908C30.8691 15.7322 31.3769 15.3904 31.582 14.9705C31.7773 14.5604 31.7773 14.033 31.6015 13.0858L31.455 12.3631L32.2265 11.5623C33.2226 10.5174 33.3789 10.0193 32.9492 9.15997C32.7148 8.69122 32.3144 8.50568 31.1816 8.32013L30.1269 8.14435L29.6093 7.16778C29.1894 6.367 29.0234 6.14239 28.7207 5.97638C28.2422 5.70294 27.5976 5.69318 27.1679 5.95685ZM28.8965 9.69708C29.1797 9.93146 29.9218 10.1561 30.4199 10.1561C30.7617 10.1561 30.7226 10.244 30.2343 10.7322C29.5605 11.3865 29.4336 11.7674 29.5605 12.6756C29.6191 13.0858 29.6582 13.4373 29.6386 13.4568C29.6191 13.4764 29.3457 13.3592 29.0136 13.1932C28.2226 12.7928 27.666 12.783 26.9238 13.1834C26.6211 13.3397 26.3476 13.4764 26.3183 13.4764C26.289 13.4764 26.289 13.1248 26.3281 12.7049C26.3672 12.285 26.3672 11.8162 26.3281 11.6697C26.289 11.5233 26.0156 11.1424 25.7129 10.8299C25.3515 10.449 25.2148 10.244 25.3027 10.2147C25.3808 10.1951 25.7129 10.1268 26.0547 10.0779C26.8652 9.94122 27.1875 9.68732 27.6074 8.85724L27.9492 8.16388L28.2812 8.79864C28.457 9.15997 28.7402 9.56036 28.8965 9.69708Z" fill="#D67EB6"/>
<path d="M39.5507 5.9766C39.3066 6.14262 39.0722 6.47465 38.7011 7.17778L38.2031 8.15434L37.1484 8.32035C36.0254 8.49614 35.7519 8.62309 35.3808 9.17973C35.1367 9.53129 35.0879 10.0684 35.2636 10.5176C35.3125 10.6641 35.6933 11.1329 36.1035 11.543L36.8457 12.2852L36.6699 13.3692L36.4941 14.4434L36.7285 14.9122C36.8945 15.2344 37.08 15.4493 37.3535 15.5957C37.9492 15.9278 38.33 15.8887 39.414 15.3418L40.3613 14.8633L41.3379 15.3418C42.4414 15.8789 42.8222 15.9278 43.3984 15.5957C44.1504 15.1758 44.3066 14.5118 44.0039 12.9688L43.8769 12.3145L44.5507 11.6504C45.3613 10.8497 45.6445 10.3614 45.5761 9.87309C45.4296 8.85746 45.0195 8.5352 43.6035 8.32035L42.5683 8.1641L42.08 7.20707C41.4941 6.07426 41.2207 5.83988 40.4394 5.78129C39.9902 5.75199 39.8339 5.78129 39.5507 5.9766ZM41.2988 9.69731C41.582 9.93168 42.3242 10.1563 42.8125 10.1563C42.9296 10.1563 43.0566 10.1758 43.0859 10.2149C43.1152 10.2442 42.9101 10.4981 42.6269 10.7813C41.9531 11.4454 41.8261 11.8457 41.9824 12.7442C42.0507 13.1055 42.08 13.418 42.0605 13.4473C42.0312 13.4668 41.7382 13.3497 41.4062 13.1836C41.0058 12.9786 40.6543 12.8711 40.3808 12.8711C40.1074 12.8711 39.7558 12.9786 39.3554 13.1836C39.0234 13.3497 38.7304 13.4668 38.7011 13.4375C38.6718 13.4082 38.7011 13.0957 38.7597 12.7442C38.916 11.875 38.7988 11.5235 38.125 10.8301C37.5879 10.2832 37.5488 10.1563 37.9492 10.1563C38.4375 10.1563 39.1796 9.93168 39.4531 9.69731C39.6093 9.57035 39.8828 9.16996 40.0586 8.8184L40.3711 8.18364L40.6836 8.8184C40.8593 9.1602 41.1425 9.56059 41.2988 9.69731Z" fill="#D67EB6"/>
<path d="M13.6523 20.2733C13.3105 20.4491 13.1836 20.6932 13.1836 21.1425C13.1836 21.7772 13.8574 22.2167 14.4629 21.9725C14.8438 21.8163 15.0391 21.5233 15.0391 21.1132C15.0391 20.6835 14.9023 20.4491 14.5508 20.2636C14.1992 20.078 13.9941 20.0878 13.6523 20.2733Z" fill="#D67EB6"/>
</g>
<defs>
<clipPath id="clip0_146_772">
<rect width="50" height="50" fill="white"/>
</clipPath>
</defs>
</svg>
