<svg width="11" height="12" viewBox="0 0 11 12" fill="none" xmlns="http://www.w3.org/2000/svg">
<path d="M2 5.75764C2 3.82626 3.56656 2.25977 5.5 2.25977V0.259766C2.46288 0.259766 0 2.7208 0 5.75764H2ZM5.5 9.25552C3.56656 9.25552 2 7.68902 2 5.75764H0C0 8.79448 2.46288 11.2555 5.5 11.2555V9.25552ZM9 5.75764C9 7.68902 7.43344 9.25552 5.5 9.25552V11.2555C8.53712 11.2555 11 8.79448 11 5.75764H9ZM11 5.75764C11 2.7208 8.53712 0.259766 5.5 0.259766V2.25977C7.43344 2.25977 9 3.82626 9 5.75764H11Z" fill="#8464C7"/>
</svg>
