<svg width="40" height="40" viewBox="0 0 40 40" fill="none" xmlns="http://www.w3.org/2000/svg">
<path d="M21 13.25C21 12.6977 20.5523 12.25 20 12.25C19.4477 12.25 19 12.6977 19 13.25H21ZM20 20.75L19.2107 21.3639C19.4001 21.6075 19.6914 21.75 20 21.75C20.3086 21.75 20.5999 21.6075 20.7894 21.3639L20 20.75ZM23.1227 18.3639C23.4618 17.928 23.3832 17.2997 22.9473 16.9606C22.5113 16.6216 21.8831 16.7001 21.544 17.1361L23.1227 18.3639ZM18.456 17.1361C18.117 16.7001 17.4887 16.6216 17.0527 16.9606C16.6168 17.2997 16.5382 17.928 16.8773 18.3639L18.456 17.1361ZM19 13.25V20.75H21V13.25H19ZM21.544 17.1361L19.2107 20.1361L20.7894 21.3639L23.1227 18.3639L21.544 17.1361ZM20.7894 20.1361L18.456 17.1361L16.8773 18.3639L19.2107 21.3639L20.7894 20.1361Z" fill="white"/>
<path d="M19 16.6667C19 17.219 19.4477 17.6667 20 17.6667C20.5523 17.6667 21 17.219 21 16.6667H19ZM21 11.6667C21 11.1144 20.5523 10.6667 20 10.6667C19.4477 10.6667 19 11.1144 19 11.6667H21ZM21 16.6667V11.6667H19V16.6667H21ZM29 15V25H31V15H29ZM11 25V15H9V25H11ZM11 15C11 10.0294 15.0294 6 20 6V4C13.9249 4 9 8.92487 9 15H11ZM20 34C15.0294 34 11 29.9706 11 25H9C9 31.0751 13.9249 36 20 36V34ZM29 25C29 29.9706 24.9706 34 20 34V36C26.0751 36 31 31.0751 31 25H29ZM31 15C31 8.92487 26.0751 4 20 4V6C24.9706 6 29 10.0294 29 15H31Z" fill="white"/>
</svg>
